<?xml version="1.0" standalone="no"?>
<!DOCTYPE svg PUBLIC "-//W3C//DTD SVG 20010904//EN"
 "http://www.w3.org/TR/2001/REC-SVG-20010904/DTD/svg10.dtd">
<svg version="1.0" xmlns="http://www.w3.org/2000/svg"
 width="551.000000pt" height="1280.000000pt" viewBox="0 0 551.000000 1280.000000"
 preserveAspectRatio="xMidYMid meet">
<metadata>
Created by potrace 1.15, written by Peter Selinger 2001-2017
</metadata>
<g transform="translate(0.000000,1280.000000) scale(0.100000,-0.100000)"
fill="#4caf50" stroke="none">
<path d="M3846 12790 c-94 -15 -235 -56 -321 -93 -327 -141 -2778 -1255 -2833
-1288 -343 -206 -585 -539 -668 -919 -28 -126 -26 -364 4 -483 47 -188 144
-360 270 -478 73 -68 557 -429 657 -489 154 -93 287 -130 495 -137 266 -9 351
14 839 234 189 84 345 152 347 150 2 -2 -1 -338 -6 -748 -9 -657 -60 -4956
-75 -6229 -3 -261 -8 -587 -11 -725 -5 -265 2 -379 35 -507 40 -155 131 -314
244 -428 88 -88 634 -490 733 -539 437 -219 1000 -107 1396 277 229 222 360
463 414 762 11 59 20 606 43 2515 16 1342 32 2629 36 2860 3 231 17 1363 30
2515 13 1152 27 2181 30 2285 8 223 -5 329 -58 477 -77 214 -165 323 -417 511
-452 339 -560 405 -746 453 -111 29 -329 41 -438 24z"/>
</g>
</svg>
