<?xml version="1.0" standalone="no"?>
<!DOCTYPE svg PUBLIC "-//W3C//DTD SVG 20010904//EN"
 "http://www.w3.org/TR/2001/REC-SVG-20010904/DTD/svg10.dtd">
<svg version="1.0" xmlns="http://www.w3.org/2000/svg"
 width="900.000000pt" height="1280.000000pt" viewBox="0 0 900.000000 1280.000000"
 preserveAspectRatio="xMidYMid meet">
<metadata>
Created by potrace 1.15, written by Peter Selinger 2001-2017
</metadata>
<g transform="translate(0.000000,1280.000000) scale(0.100000,-0.100000)"
fill="#4caf50" stroke="none">
<path d="M4090 12794 c-536 -62 -967 -191 -1425 -424 -398 -203 -752 -460
-1089 -790 -396 -389 -693 -794 -935 -1279 -145 -289 -187 -460 -178 -724 7
-218 47 -361 146 -531 78 -133 229 -272 358 -327 128 -55 1665 -659 1713 -674
30 -9 102 -19 160 -22 255 -13 510 95 720 307 104 104 169 198 267 383 239
455 585 803 1016 1022 130 66 293 129 312 121 7 -2 35 -49 64 -104 250 -489
217 -1057 -100 -1691 -216 -432 -456 -758 -962 -1306 -182 -198 -426 -451
-1052 -1092 -914 -936 -1498 -1581 -2126 -2348 -350 -428 -732 -927 -802
-1050 -219 -383 -234 -870 -36 -1222 65 -114 217 -265 324 -320 136 -69 1721
-690 1807 -707 42 -9 102 -16 133 -16 31 0 1322 144 2868 320 2000 227 2833
326 2886 340 229 64 449 228 599 448 265 386 316 878 132 1258 -82 169 -202
300 -350 382 -84 46 -1726 692 -1800 708 -104 22 -232 16 -600 -26 -189 -22
-345 -38 -347 -37 -1 2 163 171 364 377 714 731 1042 1086 1323 1435 1308
1622 1722 3417 1133 4910 -282 715 -802 1324 -1447 1695 -60 34 -148 81 -195
103 -110 51 -1789 715 -1913 757 -120 41 -305 85 -438 105 -99 15 -454 28
-530 19z"/>
</g>
</svg>
