<?xml version="1.0" standalone="no"?>
<!DOCTYPE svg PUBLIC "-//W3C//DTD SVG 20010904//EN"
 "http://www.w3.org/TR/2001/REC-SVG-20010904/DTD/svg10.dtd">
<svg version="1.0" xmlns="http://www.w3.org/2000/svg"
 width="1280.000000pt" height="1280.000000pt" viewBox="0 0 1280.000000 1280.000000"
 preserveAspectRatio="xMidYMid meet">
<metadata>
Created by potrace 1.15, written by Peter Selinger 2001-2017
</metadata>
<g transform="translate(0.000000,1280.000000) scale(0.100000,-0.100000)"
fill="#4caf50" stroke="none">
<path d="M5940 11354 c-19 -2 -84 -9 -145 -15 -1112 -111 -2097 -791 -2639
-1821 -55 -105 -66 -133 -66 -174 0 -88 12 -100 300 -296 140 -95 255 -156
1209 -637 580 -292 1056 -533 1059 -535 2 -3 -9 -22 -24 -42 l-29 -37 -2 -366
c-1 -201 2 -672 5 -1047 l7 -681 24 -34 c35 -49 590 -579 626 -597 24 -12 55
-14 177 -8 l148 7 0 -28 c0 -49 -40 -175 -75 -238 -82 -147 -199 -232 -346
-251 l-52 -7 6 74 c4 41 17 135 28 209 15 88 20 149 15 174 -9 48 -36 77 -382
412 -212 204 -258 244 -289 250 -28 5 -140 -14 -444 -75 -223 -46 -785 -158
-1248 -251 -463 -93 -856 -176 -872 -184 -16 -9 -38 -27 -50 -41 -40 -52 -43
-83 -32 -286 25 -418 93 -756 218 -1069 81 -203 502 -1042 590 -1175 274 -414
633 -723 1098 -946 308 -147 622 -236 1010 -286 197 -25 801 -25 1020 0 882
103 1535 353 2100 803 137 109 375 346 480 479 247 309 445 699 550 1081 146
533 175 1165 74 1652 -87 426 -296 830 -567 1096 l-60 59 80 106 c259 342 414
727 491 1221 18 116 21 180 21 460 1 340 -4 404 -50 635 -69 352 -199 671
-395 964 -122 183 -218 298 -400 477 -349 341 -720 573 -1169 729 -277 96
-506 137 -1080 196 -325 33 -453 42 -645 44 -132 2 -256 1 -275 -1z m575
-1337 c8 -71 -5 -158 -34 -221 -19 -43 -86 -126 -101 -126 -15 0 -22 104 -11
168 5 35 21 87 34 116 24 51 81 126 97 126 5 0 11 -28 15 -63z m-1186 -394
c16 -55 13 -192 -4 -249 -22 -74 -85 -156 -157 -203 -44 -30 -64 -39 -72 -31
-7 7 -11 56 -11 123 0 109 1 114 37 190 27 56 56 97 102 143 35 35 71 64 80
64 9 0 19 -15 25 -37z m2321 -188 c-7 -20 -14 -35 -16 -33 -2 2 1 21 7 42 6
21 13 36 16 33 3 -3 0 -22 -7 -42z m-1076 -962 c24 -148 -24 -289 -133 -384
-46 -42 -205 -128 -216 -117 -10 9 55 180 107 279 28 53 71 120 96 149 43 49
116 110 132 110 4 0 10 -17 14 -37z"/>
</g>
</svg>
