<?xml version="1.0" standalone="no"?>
<!DOCTYPE svg PUBLIC "-//W3C//DTD SVG 20010904//EN"
 "http://www.w3.org/TR/2001/REC-SVG-20010904/DTD/svg10.dtd">
<svg version="1.0" xmlns="http://www.w3.org/2000/svg"
 width="868.000000pt" height="1280.000000pt" viewBox="0 0 868.000000 1280.000000"
 preserveAspectRatio="xMidYMid meet">
<metadata>
Created by potrace 1.15, written by Peter Selinger 2001-2017
</metadata>
<g transform="translate(0.000000,1280.000000) scale(0.100000,-0.100000)"
fill="#4caf50" stroke="none">
<path d="M5391 12780 c-41 -11 -98 -31 -127 -44 -137 -63 -289 -200 -383 -347
-73 -114 -4684 -8007 -4726 -8090 -19 -36 -49 -111 -69 -167 -145 -417 -100
-911 111 -1222 104 -155 141 -181 768 -549 313 -184 592 -345 621 -358 58 -26
169 -53 224 -53 20 0 661 81 1425 180 765 99 1393 180 1396 180 4 0 9 -179 12
-398 5 -443 13 -511 73 -692 60 -179 144 -314 263 -421 41 -38 229 -154 622
-385 636 -374 645 -379 731 -399 447 -105 911 332 1018 961 20 113 21 159 20
902 0 621 2 783 12 787 7 2 121 18 253 35 132 17 265 37 296 45 288 72 541
350 669 732 50 151 70 264 77 434 16 377 -102 712 -320 914 -59 56 -154 116
-527 335 l-455 268 -5 2948 -6 2949 -21 95 c-62 281 -186 496 -354 619 -69 49
-962 578 -1145 677 -149 81 -304 103 -453 64z m-751 -7088 l0 -338 -212 -27
c-116 -14 -213 -25 -215 -23 -4 3 418 726 423 726 2 0 4 -152 4 -338z"/>
</g>
</svg>
