<?xml version="1.0" standalone="no"?>
<!DOCTYPE svg PUBLIC "-//W3C//DTD SVG 20010904//EN"
 "http://www.w3.org/TR/2001/REC-SVG-20010904/DTD/svg10.dtd">
<svg version="1.0" xmlns="http://www.w3.org/2000/svg"
 width="810.000000pt" height="1280.000000pt" viewBox="0 0 810.000000 1280.000000"
 preserveAspectRatio="xMidYMid meet">
<metadata>
Created by potrace 1.15, written by Peter Selinger 2001-2017
</metadata>
<g transform="translate(0.000000,1280.000000) scale(0.100000,-0.100000)"
fill="#4caf50" stroke="none">
<path d="M4125 12794 c-22 -2 -98 -11 -170 -20 -968 -116 -1922 -721 -2635
-1669 -415 -551 -753 -1250 -969 -2000 -401 -1394 -457 -3015 -171 -4945 16
-107 32 -247 35 -310 50 -894 414 -1739 1005 -2330 156 -157 287 -261 560
-449 976 -671 980 -674 1205 -782 293 -140 597 -228 935 -271 160 -20 573 -17
740 5 1036 140 1953 720 2618 1654 528 743 822 1661 822 2569 0 939 -251 1775
-726 2419 -122 165 -399 441 -559 558 -171 124 -1044 721 -1145 782 -319 195
-695 322 -1125 381 -183 25 -650 26 -855 1 -209 -26 -513 -90 -624 -133 -31
-12 112 300 225 492 275 467 621 802 1044 1009 411 202 834 245 1263 129 181
-49 222 -70 530 -281 301 -207 381 -251 496 -272 447 -82 895 284 1037 846 55
217 57 462 5 667 -68 267 -187 434 -471 661 -125 100 -1175 818 -1310 896
-333 191 -728 321 -1139 375 -114 15 -531 27 -621 18z m1065 -7252 c38 -6 47
-12 62 -42 152 -309 206 -787 128 -1141 -45 -209 -137 -419 -268 -615 -425
-635 -1199 -989 -1897 -868 -49 8 -95 19 -101 24 -20 18 -112 205 -143 293
-242 691 86 1537 784 2019 279 193 587 305 930 338 95 9 429 4 505 -8z"/>
</g>
</svg>
