<?xml version="1.0" standalone="no"?>
<!DOCTYPE svg PUBLIC "-//W3C//DTD SVG 20010904//EN"
 "http://www.w3.org/TR/2001/REC-SVG-20010904/DTD/svg10.dtd">
<svg version="1.0" xmlns="http://www.w3.org/2000/svg"
 width="711.000000pt" height="1280.000000pt" viewBox="0 0 711.000000 1280.000000"
 preserveAspectRatio="xMidYMid meet">
<metadata>
Created by potrace 1.15, written by Peter Selinger 2001-2017
</metadata>
<g transform="translate(0.000000,1280.000000) scale(0.100000,-0.100000)"
fill="#4caf50" stroke="none">
<path d="M2828 12511 c-1120 -158 -2066 -293 -2101 -299 -485 -80 -832 -811
-697 -1471 51 -250 181 -475 334 -580 37 -26 1476 -812 1590 -869 67 -34 140
-52 211 -52 33 0 291 32 573 71 281 40 515 70 518 67 3 -3 -544 -1607 -1214
-3565 -671 -1958 -1229 -3599 -1240 -3649 -35 -151 -45 -257 -39 -424 7 -170
22 -256 71 -402 49 -144 107 -239 206 -338 l85 -85 815 -442 c850 -461 873
-472 991 -473 277 -1 556 239 700 603 12 28 765 2223 1674 4877 909 2654 1672
4877 1695 4940 53 148 78 249 96 380 61 461 -92 911 -369 1088 -109 69 -1579
864 -1637 885 -120 42 -65 49 -2262 -262z"/>
</g>
</svg>
