<?xml version="1.0" standalone="no"?>
<!DOCTYPE svg PUBLIC "-//W3C//DTD SVG 20010904//EN"
 "http://www.w3.org/TR/2001/REC-SVG-20010904/DTD/svg10.dtd">
<svg version="1.0" xmlns="http://www.w3.org/2000/svg"
 width="871.000000pt" height="1280.000000pt" viewBox="0 0 871.000000 1280.000000"
 preserveAspectRatio="xMidYMid meet">
<metadata>
Created by potrace 1.15, written by Peter Selinger 2001-2017
</metadata>
<g transform="translate(0.000000,1280.000000) scale(0.100000,-0.100000)"
fill="#4caf50" stroke="none">
<path d="M4060 12793 c-276 -26 -459 -55 -654 -104 -1123 -283 -2107 -1084
-2640 -2148 -202 -402 -329 -815 -392 -1276 -26 -183 -26 -676 -1 -855 91
-643 329 -1179 725 -1626 l80 -90 -70 -80 c-552 -621 -921 -1375 -1052 -2144
-41 -243 -51 -369 -51 -650 1 -285 14 -435 61 -670 170 -855 656 -1578 1355
-2018 133 -84 1300 -719 1484 -808 719 -347 1588 -417 2460 -198 1557 392
2838 1664 3224 3203 90 359 115 563 115 946 0 321 -9 429 -60 685 -118 594
-394 1135 -789 1549 -84 88 -224 218 -288 268 l-28 21 52 69 c29 37 89 124
134 193 349 535 563 1119 635 1735 18 153 24 488 11 650 -76 944 -533 1753
-1264 2239 -128 85 -1389 775 -1547 846 -402 182 -845 273 -1303 268 -89 0
-178 -3 -197 -5z m1239 -2872 c21 -21 54 -102 79 -196 26 -96 21 -276 -11
-398 -105 -396 -461 -789 -922 -1020 -278 -138 -557 -210 -867 -224 l-148 -6
-25 57 c-51 116 -69 202 -69 331 0 188 56 369 171 553 322 514 926 864 1573
911 180 14 198 13 219 -8z m239 -4705 c30 -26 118 -204 146 -292 127 -407 -36
-880 -448 -1303 -402 -412 -948 -676 -1536 -742 -117 -13 -398 -16 -476 -5
-51 7 -51 8 -96 84 -99 167 -140 314 -141 497 0 253 77 480 254 745 354 530
996 915 1689 1014 161 24 171 24 387 22 174 -2 206 -5 221 -20z"/>
</g>
</svg>
